# xmcd
#
# Track frame offsets:
#	150
#	10162
#	20602
#	32415
#	44822
#	56162
#	66237
#	77865
#	91560
#	101895
#	112222
#	126997
#	136512
#	149050
#	158905
#	170892
#	182302
#	193875
#	205792
#	215602
#	225867
#	241075
#	253922
#	266962
#	279155
#
# Disc length: 3902 seconds
#
# Revision: 1
# Processed by: cddbd v1.4PL0 Copyright (c) Steve Scherf et al.
# Submitted via: audiograbber 1.80.04
#
DISCID=710f3c19
DTITLE=Various Artist - Jumpin' and Jivin'
DYEAR=1997
DGENRE=Swing
TTITLE0=Daddy Cleanhead - Something's Goin' On In My Room
TTITLE1=Roy Milton - Tell It Like It Is
TTITLE2=Duke Henderson - Lucy Brown
TTITLE3=Leo Parker - Mad Lad Returns
TTITLE4=The Nelson Alexander Trio - Drink Up - Light Up
TTITLE5=Roy Milton - Baby, Don't Do That To Me
TTITLE6=Amos Easton (Bumble Bee Slim) - Sometimes
TTITLE7=Joe Turner - When The Rooster Crows (AKA I Want My Baby)
TTITLE8=Jimmy Liggins - Hep Cat Boogie
TTITLE9=Roy Milton - Baby, You Don't Know
TTITLE10=King Pleasure - Red Top
TTITLE11=Amos Easton (Bumble Bee Slim) - Ida Red
TTITLE12=Rudy Ferguson - Cool Goofin'
TTITLE13=Marvin Phillips - Wine Woogie
TTITLE14=Annie Ross - Twisted
TTITLE15=Amos Easton (Bumble Bee Slim) - Tiny's Boogie
TTITLE16=Roy Milton - If You Don't Know
TTITLE17=King Perry - I Must Have Been An Ugly Baby
TTITLE18=Eddie Jefferson - Stop Talkin', Start Walkin'
TTITLE19=Roy Milton - Gonna Leave You Baby
TTITLE20=Eddie "Lockjaw" Davis - Squattin'
TTITLE21=Floyd Dixon - Hole In The Wall
TTITLE22=Joe Carroll - Got A Penny, Benny?
TTITLE23=Roy Milton - Make Me Know It
TTITLE24=King Pleasure - Moody's Mood For Love (AKA I'm In The Mood For Love)
EXTD=
EXTT0=
EXTT1=
EXTT2=
EXTT3=
EXTT4=
EXTT5=
EXTT6=
EXTT7=
EXTT8=
EXTT9=
EXTT10=
EXTT11=
EXTT12=
EXTT13=
EXTT14=
EXTT15=
EXTT16=
EXTT17=
EXTT18=
EXTT19=
EXTT20=
EXTT21=
EXTT22=
EXTT23=
EXTT24=
PLAYORDER=
